<svg width="867" height="204" viewBox="0 0 867 204" fill="none" xmlns="http://www.w3.org/2000/svg">
<path d="M374.734 84.9303L374.62 82.9335L374.734 84.9303ZM850.586 203.414C851.367 204.195 852.633 204.195 853.414 203.414L866.142 190.686C866.923 189.905 866.923 188.639 866.142 187.858C865.361 187.077 864.094 187.077 863.313 187.858L852 199.172L840.686 187.858C839.905 187.077 838.639 187.077 837.858 187.858C837.077 188.639 837.077 189.906 837.858 190.687L850.586 203.414ZM0 1.52588e-05C0 8.50386 4.51447 19.2893 15.7934 30.3242C27.0871 41.3734 45.2597 52.7814 72.9036 62.6039C128.18 82.2448 221.666 95.6661 374.847 86.927L374.62 82.9335C221.685 91.6585 128.804 78.2215 74.2429 58.8347C46.9679 49.1434 29.3539 37.9952 18.5907 27.465C7.81274 16.9203 4 7.10304 4 1.52588e-05H0ZM374.847 86.927C590.475 74.6254 709.431 88.1274 774.414 112.417C806.861 124.545 825.694 139.305 836.441 154.735C847.177 170.149 850 186.455 850 202L854 202C854 185.952 851.079 168.753 839.723 152.448C828.377 136.159 808.768 120.987 775.814 108.67C709.996 84.0685 590.319 70.6279 374.62 82.9335L374.847 86.927Z" fill="#4597F7"/>
</svg>
