<svg width="520" height="299" viewBox="0 0 520 299" fill="none" xmlns="http://www.w3.org/2000/svg">
<path d="M294.921 173.707L295.06 174.697L294.921 173.707ZM8.7071 0.292887C8.31657 -0.0976338 7.68341 -0.0976284 7.29289 0.292899L0.928981 6.65691C0.53846 7.04744 0.538465 7.68061 0.928993 8.07113C1.31952 8.46165 1.95269 8.46164 2.34321 8.07112L8.00001 2.41421L13.6569 8.07102C14.0474 8.46154 14.6806 8.46153 15.0711 8.07101C15.4616 7.68048 15.4616 7.04731 15.0711 6.65679L8.7071 0.292887ZM520 299C520 275.736 509.897 237.678 476.629 208.67C443.334 179.639 386.994 159.807 294.783 172.716L295.06 174.697C386.879 161.843 442.578 181.634 475.315 210.178C508.079 238.746 518 276.216 518 299H520ZM294.783 172.716C165.231 190.853 93.8824 170.942 54.898 135.184C15.9114 99.425 9.0004 47.5576 9 0.999991L7 1.00001C7.0004 47.6554 13.8981 100.292 53.5461 136.658C93.1961 173.026 165.308 192.862 295.06 174.697L294.783 172.716Z" fill="#4597F7"/>
</svg>
