<svg width="16" height="17" viewBox="0 0 16 17" fill="none" xmlns="http://www.w3.org/2000/svg">
<path d="M8.25 0.75C3.96875 0.75 0.5 4.21875 0.5 8.5C0.5 12.7812 3.96875 16.25 8.25 16.25C12.5312 16.25 16 12.7812 16 8.5C16 4.21875 12.5312 0.75 8.25 0.75ZM8.25 14.75C4.78125 14.75 2 11.9688 2 8.5C2 5.0625 4.78125 2.25 8.25 2.25C11.6875 2.25 14.5 5.0625 14.5 8.5C14.5 11.9688 11.6875 14.75 8.25 14.75ZM10.875 10.2812C10.2188 11.0625 9.25 11.5 8.25 11.5C7.21875 11.5 6.25 11.0625 5.625 10.2812C5.34375 9.96875 4.875 9.9375 4.5625 10.1875C4.25 10.4375 4.1875 10.9375 4.46875 11.25C5.40625 12.375 6.78125 13 8.25 13C9.6875 13 11.0625 12.375 12 11.25C12.2812 10.9375 12.25 10.4375 11.9062 10.1875C11.5938 9.9375 11.125 9.96875 10.875 10.2812ZM4.75 7.09375C5 6.6875 5.34375 6.4375 5.75 6.4375C6.125 6.4375 6.46875 6.6875 6.71875 7.09375L7.03125 7.625C7.09375 7.75 7.21875 7.78125 7.3125 7.75C7.40625 7.71875 7.5 7.625 7.5 7.5C7.375 6.1875 6.46875 5.25 5.75 5.25C5 5.25 4.09375 6.1875 4 7.5C3.96875 7.625 4.0625 7.71875 4.15625 7.75C4.28125 7.78125 4.40625 7.75 4.46875 7.625L4.75 7.09375ZM10.75 5.25C10 5.25 9.09375 6.1875 9 7.5C8.96875 7.625 9.0625 7.71875 9.15625 7.75C9.28125 7.78125 9.40625 7.75 9.46875 7.625L9.75 7.09375C10 6.6875 10.3438 6.4375 10.75 6.4375C11.125 6.4375 11.4688 6.6875 11.7188 7.09375L12.0312 7.625C12.0938 7.75 12.2188 7.78125 12.3125 7.75C12.4062 7.71875 12.5 7.625 12.5 7.5C12.375 6.1875 11.4688 5.25 10.75 5.25Z" fill="#B6B6B6"/>
</svg>
