<svg width="390" height="161" viewBox="0 0 390 161" fill="none" xmlns="http://www.w3.org/2000/svg">
<path d="M222.943 75.8235L222.816 74.8316L222.943 75.8235ZM8.7071 0.292887C8.31657 -0.0976341 7.68341 -0.0976281 7.29289 0.2929L0.928985 6.65692C0.538465 7.04745 0.53847 7.68061 0.928998 8.07113C1.31953 8.46165 1.95269 8.46165 2.34321 8.07112L8.00001 2.41421L13.6569 8.07101C14.0474 8.46154 14.6806 8.46153 15.0711 8.071C15.4617 7.68047 15.4616 7.04731 15.0711 6.65679L8.7071 0.292887ZM389.5 160.5C389.5 144.668 381.988 118.845 357.333 99.1804C332.663 79.5044 290.973 66.1036 222.816 74.8316L223.07 76.8154C290.881 68.1317 331.969 81.5089 356.086 100.744C380.217 119.99 387.5 145.212 387.5 160.5H389.5ZM222.816 74.8316C174.948 80.9615 137.624 83.2826 108.567 82.3418C79.5 81.4008 58.7715 77.1973 44.0509 70.3291C29.3667 63.4779 20.6416 53.9678 15.5604 42.3178C10.4603 30.6249 9.00015 16.7073 9 0.999991L7 1.00001C7.00015 16.7906 8.46011 31.0416 13.7271 43.1174C19.0129 55.2361 28.1018 65.0947 43.2053 72.1416C58.2725 79.1715 79.3057 83.3955 108.502 84.3408C137.707 85.2863 175.147 82.9524 223.07 76.8154L222.816 74.8316Z" fill="#4A91E3"/>
</svg>
