<svg width="19" height="17" viewBox="0 0 19 17" fill="none" xmlns="http://www.w3.org/2000/svg">
<path d="M17 5.875L12.4375 5.21875L10.375 1.0625C10.0312 0.34375 8.96875 0.3125 8.59375 1.0625L6.5625 5.21875L1.96875 5.875C1.15625 6 0.84375 7 1.4375 7.59375L4.71875 10.8125L3.9375 15.3438C3.8125 16.1562 4.6875 16.7812 5.40625 16.4062L9.5 14.25L13.5625 16.4062C14.2812 16.7812 15.1562 16.1562 15.0312 15.3438L14.25 10.8125L17.5312 7.59375C18.125 7 17.8125 6 17 5.875ZM12.625 10.2812L13.375 14.5938L9.5 12.5625L5.59375 14.5938L6.34375 10.2812L3.1875 7.21875L7.53125 6.59375L9.5 2.65625L11.4375 6.59375L15.7812 7.21875L12.625 10.2812Z" fill="#B6B6B6"/>
</svg>
